<?xml version="1.0" encoding="iso-8859-1"?>
<!-- Uploaded to: SVG Repo, www.svgrepo.com, Generator: SVG Repo Mixer Tools -->
<svg version="1.1" id="Layer_1" xmlns="http://www.w3.org/2000/svg" xmlns:xlink="http://www.w3.org/1999/xlink" 
	 viewBox="0 0 511.999 511.999" xml:space="preserve">
<g>
	<polygon style="fill:#FFFFFF;" points="232,80.002 88,296.001 104,304.001 224,304.001 232,288.001 	"/>
	<polygon style="fill:#FFFFFF;" points="280,120.001 384,288.001 376,304.001 296,304.001 280,296.001 	"/>
</g>
<rect x="256.004" y="16.001" style="fill:#F9B233;" width="79.999" height="39.999"/>
<g>
	<polygon style="fill:#E30613;" points="232,336.001 64,336.001 88,304.001 232,304.001 	"/>
	<polygon style="fill:#E30613;" points="408,336.001 280,336.001 280,304.001 392,304.001 	"/>
</g>
<polygon style="fill:#CBBBA0;" points="432,392.001 80,392.001 96,432.001 408,432.001 "/>
<rect x="79.999" y="367.998" style="fill:#F9B233;" width="352" height="32"/>
<rect y="431.999" style="fill:#86CBED;" width="511.997" height="79.999"/>
<g>
	<rect x="128.002" y="392.167" style="fill:#FFFFFF;" width="16.001" height="15.674"/>
	<rect x="159.997" y="392.167" style="fill:#FFFFFF;" width="16.001" height="15.674"/>
	<rect x="192.003" y="392.167" style="fill:#FFFFFF;" width="16.001" height="15.674"/>
</g>
<g>
	<path style="fill:#1D1D1B;" d="M337.418,32.002l21.225-31.836h-94.806V0.001h-15.674v80.001h15.674V63.838h94.806L337.418,32.002z
		 M329.358,48.164h-65.52V15.838h65.52L318.581,32L329.358,48.164z"/>
	<path style="fill:#1D1D1B;" d="M427.381,424.165c7.736-8.501,12.456-19.791,12.456-32.163v-31.836h-176V88.002h-15.674v272.163
		H72.163v31.836c0,12.372,4.722,23.662,12.456,32.163H0v15.674h511.999v-15.674L427.381,424.165L427.381,424.165z M120,424.165
		c-17.735,0-32.163-14.428-32.163-32.163v-16.163h336.327v16.163c0,0.054-0.004,0.109-0.004,0.163H224v15.674h195.978
		c-5.535,9.739-15.999,16.327-27.978,16.327H120z"/>
	<path style="fill:#1D1D1B;" d="M239.837,45.089L49.724,343.838h190.111V45.089H239.837z M224.163,296.165H98.64L224.163,98.914
		V296.165z M78.277,328.164l10.39-16.327h135.497v16.327H78.277z"/>
	<path style="fill:#1D1D1B;" d="M272.163,91.405v252.433h149.59L272.163,91.405z M375.284,296.165h-87.447V148.598L375.284,296.165z
		 M287.837,311.839h96.735l9.675,16.327h-106.41V311.839z"/>
</g>
<g>
	<rect x="64.001" y="456.168" style="fill:#FFFFFF;" width="39.999" height="15.674"/>
	<rect x="112.004" y="480.159" style="fill:#FFFFFF;" width="79.999" height="15.674"/>
	<rect x="199.996" y="496.167" style="fill:#FFFFFF;" width="24" height="15.674"/>
	<rect x="232.002" y="456.168" style="fill:#FFFFFF;" width="95.996" height="15.674"/>
	<rect x="320.005" y="480.159" style="fill:#FFFFFF;" width="39.999" height="15.674"/>
	<rect x="424.005" y="464.162" style="fill:#FFFFFF;" width="31.999" height="15.674"/>
</g>
</svg>